<?xml version="1.0" encoding="UTF-8"?>
<!DOCTYPE svg PUBLIC "-//W3C//DTD SVG 1.1//EN" "http://www.w3.org/Graphics/SVG/1.1/DTD/svg11.dtd">
<svg xmlns="http://www.w3.org/2000/svg" version="1.1" width="250px" height="250px" style="shape-rendering:geometricPrecision; text-rendering:geometricPrecision; image-rendering:optimizeQuality; fill-rule:evenodd; clip-rule:evenodd" xmlns:xlink="http://www.w3.org/1999/xlink">
<g><path style="opacity:0.157" fill="#fdfefd" d="M -0.5,-0.5 C 82.8333,-0.5 166.167,-0.5 249.5,-0.5C 249.5,82.8333 249.5,166.167 249.5,249.5C 166.167,249.5 82.8333,249.5 -0.5,249.5C -0.5,166.167 -0.5,82.8333 -0.5,-0.5 Z"/></g>
<g><path style="opacity:0.995" fill="#4c7d41" d="M 58.5,148.5 C 56.9261,150.102 56.2594,152.102 56.5,154.5C 55.3428,159 54.3428,163.667 53.5,168.5C 29.9384,150.719 14.9384,127.386 8.5,98.5C 7.76389,91.1177 6.43056,84.1177 4.5,77.5C 4.5,73.5 4.5,69.5 4.5,65.5C 6.58128,59.4639 7.58128,53.1305 7.5,46.5C 9.8338,38.4978 12.1671,30.4978 14.5,22.5C 60.4093,17.6269 98.4093,32.4602 128.5,67C 121.937,69.8967 115.603,73.23 109.5,77C 101.309,83.5317 93.4752,90.365 86,97.5C 78.8297,89.6655 70.9964,82.4988 62.5,76C 57.9766,72.7484 53.3099,70.0817 48.5,68C 60.9842,79.6346 69.9842,93.468 75.5,109.5C 70.7625,117.973 66.2625,126.64 62,135.5C 60.6971,139.892 59.5304,144.225 58.5,148.5 Z"/></g>
<g><path style="opacity:0.792" fill="#9eb998" d="M 7.5,46.5 C 7.58128,53.1305 6.58128,59.4639 4.5,65.5C 4.54729,58.8888 5.54729,52.5555 7.5,46.5 Z"/></g>
<g><path style="opacity:0.992" fill="#62a735" d="M 243.5,97.5 C 241.978,102.273 240.978,107.273 240.5,112.5C 225.015,165.138 190.015,195.638 135.5,204C 126.167,204.667 116.833,204.667 107.5,204C 97.2592,202.272 87.2592,199.938 77.5,197C 74.5406,201.751 71.7072,206.584 69,211.5C 65.854,218.785 63.0206,226.119 60.5,233.5C 54.8514,232.508 49.8514,230.175 45.5,226.5C 55.2588,210.646 65.7588,195.313 77,180.5C 99.2165,153.022 126.05,131.689 157.5,116.5C 144.118,119.354 131.451,124.187 119.5,131C 98.6315,143.195 79.4649,157.695 62,174.5C 64.2523,141.868 77.7523,114.701 102.5,93C 136.125,65.4745 174.125,57.1411 216.5,68C 225.55,71.0263 234.217,74.8596 242.5,79.5C 243.496,85.4632 243.829,91.4632 243.5,97.5 Z"/></g>
<g><path style="opacity:0.941" fill="#8aaa82" d="M 4.5,77.5 C 6.43056,84.1177 7.76389,91.1177 8.5,98.5C 5.77477,91.9021 4.44144,84.9021 4.5,77.5 Z"/></g>
<g><path style="opacity:0.612" fill="#b3d49c" d="M 243.5,97.5 C 243.876,102.894 242.876,107.894 240.5,112.5C 240.978,107.273 241.978,102.273 243.5,97.5 Z"/></g>
<g><path style="opacity:0.69" fill="#b7d7a2" d="M 157.5,116.5 C 158.799,114.901 160.465,114.401 162.5,115C 160.975,116.009 159.308,116.509 157.5,116.5 Z"/></g>
<g><path style="opacity:0.537" fill="#aec4a8" d="M 58.5,148.5 C 58.7406,150.898 58.0739,152.898 56.5,154.5C 56.2594,152.102 56.9261,150.102 58.5,148.5 Z"/></g>
</svg>
